<svg xmlns="http://www.w3.org/2000/svg" viewBox="0 0 410 404" fill="none"><path d="M399.641 59.5246L215.643 388.545C211.844 395.338 202.084 395.378 198.228 388.618L10.5817 59.5563C6.38087 52.1896 12.6802 43.2665 21.0281 44.7586L205.223 77.6824C206.398 77.8924 207.601 77.8904 208.776 77.6763L389.119 44.8058C397.439 43.2895 403.768 52.1434 399.641 59.5246Z" fill="url(#a)"/><path d="M292.965 1.5744L156.801 28.2552C154.563 28.6937 152.906 30.5903 152.771 32.8664L144.395 174.33C144.198 177.662 147.258 180.248 150.51 179.498L188.42 170.749C191.967 169.931 195.172 173.058 194.443 176.626L183.18 231.798C182.422 235.515 185.907 238.682 189.532 237.524L213.014 230.404C216.643 229.244 220.132 232.418 219.367 236.138L201.435 322.819C200.319 328.21 207.488 331.147 210.487 326.532L212.488 323.451L323.633 102.072C325.491 98.3724 322.295 94.1408 318.235 94.9247L279.222 102.454C275.567 103.16 272.456 99.7547 273.482 96.1789L298.945 7.86807C299.973 4.28586 296.854 0.876807 293.196 1.58840Z" fill="url(#b)"/><defs><linearGradient id="a" x1="6.00017" y1="32.9999" x2="235" y2="344" gradientUnits="userSpaceOnUse"><stop stop-color="#41D1FF"/><stop offset="1" stop-color="#BD34FE"/></linearGradient><linearGradient id="b" x1="194.651" y1="8.81818" x2="236.076" y2="292.989" gradientUnits="userSpaceOnUse"><stop stop-color="#FFEA83"/><stop offset=".0833" stop-color="#FFDD35"/><stop offset="1" stop-color="#FFA800"/></linearGradient></defs></svg>
